<svg width="16" height="12" viewBox="0 0 16 12" xmlns="http://www.w3.org/2000/svg">
    <path d="M12.285 11.796c-.76 0-1.53-.668-2.118-1.086-.509.754-1.504 1.29-2.44 1.29-.983 0-2.118-.39-2.677-1.374a2.162 2.162 0 0 1-1.907 1.17C1.407 11.796 0 10.294 0 8.44c0-1.36.892-2.318 1.983-2.844-.08-.254-.256-.737-.256-1.02 0-1.403 1.066-2.542 2.381-2.542.366 0 .843.233 1.153.39C5.854 1.077 7.003 0 8.489 0c2.022 0 3.923 1.476 3.317 4.328.028 0 .45-.464.48-.464 2.05 0 3.714 1.775 3.714 3.964-.001 2.192-1.664 3.968-3.715 3.968z"
          fill-rule="evenodd"></path>
</svg>